<svg width="32" height="32" viewBox="0 0 32 32" fill="none" xmlns="http://www.w3.org/2000/svg">
<rect width="32" height="32" rx="16" fill="#EA591D"/>
<path fill-rule="evenodd" clip-rule="evenodd" d="M12.0595 12.042C12.0595 9.83105 13.7922 8 15.9771 8C18.162 8 19.8948 9.83105 19.8948 12.042C19.8948 14.2524 18.162 16.084 15.9771 16.084C13.7922 16.084 12.0595 14.2524 12.0595 12.042ZM18.2234 19.7363C18.7878 19.5283 19.3232 19.2378 19.8095 18.874C20.4652 18.3828 20.553 17.4629 20.0708 16.8325C19.5911 16.2051 18.6832 16.041 18.0317 16.5288C17.4337 16.9766 16.7136 17.2119 16.0171 17.1978C15.3173 17.1836 14.5651 16.9155 13.9468 16.4438C13.3156 15.9624 12.3958 16.0513 11.9055 16.708C11.4186 17.3599 11.5837 18.2676 12.2118 18.7466C12.6997 19.1187 13.2378 19.4233 13.8031 19.6494L12.1978 21.5718C11.6887 22.1812 11.7488 23.0991 12.3417 23.6323C12.948 24.1772 13.87 24.1055 14.3901 23.4829L15.9769 21.583L17.5638 23.4829C18.0839 24.1055 19.006 24.1772 19.6122 23.6323C20.2051 23.0991 20.2653 22.1812 19.7562 21.5718L18.2234 19.7363ZM15.9999 12.9995C16.5521 12.9995 16.9999 12.5518 16.9999 11.9995C16.9999 11.4473 16.5521 10.9995 15.9999 10.9995C15.4476 10.9995 14.9999 11.4473 14.9999 11.9995C14.9999 12.5518 15.4476 12.9995 15.9999 12.9995Z" fill="white"/>
</svg>
